<svg width="12" height="6" viewBox="0 0 12 6" fill="none" xmlns="http://www.w3.org/2000/svg">
<path d="M6.38248 5.30113C6.19922 5.3025 6.02129 5.24541 5.87958 5.13978L1.15332 1.597C0.992458 1.47674 0.890741 1.30318 0.870547 1.11451C0.850352 0.925845 0.913334 0.737523 1.04564 0.590975C1.17794 0.444427 1.36872 0.351658 1.57602 0.333074C1.78332 0.314491 1.99015 0.371616 2.15101 0.491883L6.37319 3.66629L10.5597 0.558326C10.6396 0.498569 10.7316 0.453759 10.8306 0.426473C10.9295 0.399188 11.0334 0.389963 11.1362 0.39933C11.239 0.408698 11.3388 0.436471 11.4297 0.481056C11.5207 0.525641 11.601 0.586157 11.6662 0.659127C11.7384 0.732123 11.7933 0.81793 11.8274 0.91117C11.8615 1.00441 11.8741 1.10308 11.8643 1.20099C11.8546 1.29889 11.8227 1.39394 11.7707 1.48016C11.7188 1.56638 11.6478 1.64192 11.5623 1.70205L6.87592 5.17696C6.73126 5.26739 6.55753 5.31111 6.38248 5.30113Z" fill="#2D4059"/>
</svg>